<?xml version="1.0" encoding="UTF-8" standalone="no"?>
<!DOCTYPE svg PUBLIC "-//W3C//DTD SVG 1.1//EN"
 "http://www.w3.org/Graphics/SVG/1.1/DTD/svg11.dtd">
<!-- Generated by graphviz version 2.38.0 (20140413.2041)
 -->
<!-- Title: %3 Pages: 1 -->
<svg width="296pt" height="116pt"
 viewBox="0.00 0.00 295.77 116.00" xmlns="http://www.w3.org/2000/svg" xmlns:xlink="http://www.w3.org/1999/xlink">
<g id="graph0" class="graph" transform="scale(1 1) rotate(0) translate(4 112)">
<title>%3</title>
<polygon fill="white" stroke="none" points="-4,4 -4,-112 291.767,-112 291.767,4 -4,4"/>
<!-- CS8 -->
<g id="node1" class="node"><title>CS8</title>
<ellipse fill="none" stroke="black" cx="27" cy="-90" rx="27" ry="18"/>
<text text-anchor="middle" x="27" y="-85.8" font-family="Times,serif" font-size="14.00">CS8</text>
</g>
<!-- CS16 -->
<g id="node2" class="node"><title>CS16</title>
<ellipse fill="none" stroke="black" cx="102" cy="-90" rx="29.5361" ry="18"/>
<text text-anchor="middle" x="102" y="-85.8" font-family="Times,serif" font-size="14.00">CS16</text>
</g>
<!-- CS24 -->
<g id="node3" class="node"><title>CS24</title>
<ellipse fill="none" stroke="black" cx="102" cy="-18" rx="29.5361" ry="18"/>
<text text-anchor="middle" x="102" y="-13.8" font-family="Times,serif" font-size="14.00">CS24</text>
</g>
<!-- CS16&#45;&gt;CS24 -->
<g id="edge1" class="edge"><title>CS16&#45;&gt;CS24</title>
<path fill="none" stroke="black" d="M102,-71.6966C102,-63.9827 102,-54.7125 102,-46.1124"/>
<polygon fill="black" stroke="black" points="105.5,-46.1043 102,-36.1043 98.5001,-46.1044 105.5,-46.1043"/>
</g>
<!-- CS32 -->
<g id="node4" class="node"><title>CS32</title>
<ellipse fill="none" stroke="black" cx="180" cy="-90" rx="29.5361" ry="18"/>
<text text-anchor="middle" x="180" y="-85.8" font-family="Times,serif" font-size="14.00">CS32</text>
</g>
<!-- CS40 -->
<g id="node5" class="node"><title>CS40</title>
<ellipse fill="none" stroke="black" cx="258" cy="-90" rx="29.5361" ry="18"/>
<text text-anchor="middle" x="258" y="-85.8" font-family="Times,serif" font-size="14.00">CS40</text>
</g>
</g>
</svg>
